<?xml version="1.0" encoding="UTF-8" standalone="no"?>
<svg
   width="100%"
   height="100%"
   viewBox="0 0 1180 420"
   version="1.1"
   xml:space="preserve"
   style="fill-rule:evenodd;clip-rule:evenodd;stroke-linejoin:round;stroke-miterlimit:2;"
   id="svg109"
   sodipodi:docname="xcloner-logo.svg"
   inkscape:version="1.1.1 (3bf5ae0d25, 2021-09-20, custom)"
   xmlns:inkscape="http://www.inkscape.org/namespaces/inkscape"
   xmlns:sodipodi="http://sodipodi.sourceforge.net/DTD/sodipodi-0.dtd"
   xmlns="http://www.w3.org/2000/svg"
   xmlns:svg="http://www.w3.org/2000/svg"><sodipodi:namedview
   id="namedview111"
   pagecolor="#ffffff"
   bordercolor="#666666"
   borderopacity="1.0"
   inkscape:pageshadow="2"
   inkscape:pageopacity="0.0"
   inkscape:pagecheckerboard="0"
   showgrid="false"
   inkscape:zoom="1.5496425"
   inkscape:cx="1160.9129"
   inkscape:cy="483.01463"
   inkscape:window-width="1920"
   inkscape:window-height="1051"
   inkscape:window-x="1920"
   inkscape:window-y="0"
   inkscape:window-maximized="1"
   inkscape:current-layer="layer1" />
    <g
   transform="matrix(1,0,0,1,0,-65)"
   id="g77">
        <g
   transform="matrix(1,0,0,0.763636,0,65)"
   id="g4">
            <rect
   x="0"
   y="0"
   width="1180"
   height="550"
   style="fill:rgb(0,188,115);"
   id="rect2" />
        </g>
        <g
   id="g38">
            <g
   id="g22">
                <g
   id="g14">
                    <g
   id="g8">
                        <path
   d="M380.9,237.6C371.9,189.9 333,154 286.4,154C245.2,154 210,182.4 196.2,221.8C89.6,203.4 72.1,379.4 184.4,383.4C189.1,383.4 193.7,383.1 198,382.4C285.1,369.8 294.7,236.6 379.9,237.7L381,237.7L380.9,237.6Z"
   style="fill:url(#_Linear1);fill-rule:nonzero;"
   id="path6" />
                    </g>
                    <g
   id="g12">
                        <path
   d="M197.9,382.4C285,369.8 294.6,236.6 379.8,237.7L380.9,237.7C487,239.9 467.2,381.9 390.9,382.5C330.4,382.9 197.9,382.4 197.9,382.4"
   style="fill:url(#_Linear2);fill-rule:nonzero;"
   id="path10" />
                    </g>
                </g>
                <g
   id="g20">
                    <path
   d="M477,160.4C473.8,160 470.9,159.6 467.9,159.4C452.9,158.1 438.1,158.5 423.6,163.1C414.5,166 406.5,170.6 400.8,178.5C395.5,186 392.4,194.4 390.8,203.4C390.1,207.6 389.7,211.9 389.4,216.4C403.8,200.5 420.7,187.9 438.9,177C422.4,190 407.2,204.1 395.7,222.1C396.2,222.4 396.6,222.6 396.9,222.7C410.5,226.2 423.9,226.4 436.8,220C447.3,214.8 454.9,206.9 458.6,195.6C460,191.2 461.3,186.8 462.6,182.4C465,174.2 469.5,167.4 476,161.8C476.2,161.6 476.4,161.5 476.6,161.3C476.6,161 476.7,160.9 477,160.4Z"
   style="fill:url(#_Linear3);fill-rule:nonzero;"
   id="path16" />
                    <path
   d="M387.4,132.7C387.4,133 387.3,133.3 387.3,133.6C387.5,138.6 385.9,143.2 383.4,147.5C382,149.9 380.5,152.3 379.4,154.8C375.8,162.6 376.9,170.2 381,177.5C383.2,181.4 386.3,184.6 390.2,187.4C392.7,182.3 396.4,178 396,171.9C395.7,166.8 395.9,161.6 395.9,156.2C396.7,162.2 397.6,168.1 398.4,174.2C399,173.7 399.5,173.3 400,172.9C402.7,170.9 405.3,168.7 408.1,166.9C409.5,166 409.9,165.2 409.6,163.6C408.8,158.4 406.5,153.7 403.6,149.4C399.5,143.2 394.3,137.9 388.5,133.2C388.3,133 388,132.8 387.7,132.6C387.8,132.7 387.6,132.7 387.4,132.7Z"
   style="fill:url(#_Linear4);fill-rule:nonzero;"
   id="path18" />
                </g>
            </g>
            <g
   id="g36">
                <path
   d="M509.3,242.1L527.2,242.1L527.2,352.1L595.2,352.1L595.2,367.7L509.3,367.7L509.3,242.1Z"
   style="fill:white;fill-rule:nonzero;"
   id="path24" />
                <path
   d="M707,352.1L707,367.7L615.9,367.7L615.9,242.1L704.5,242.1L704.5,257.7L633.8,257.7L633.8,296.3L696.8,296.3L696.8,311.6L633.8,311.6L633.8,352.1L707,352.1Z"
   style="fill:white;fill-rule:nonzero;"
   id="path26" />
                <path
   d="M843.4,242.1L788.3,367.7L770.5,367.7L715.2,242.1L734.6,242.1L779.8,345.3L825.4,242.1L843.4,242.1Z"
   style="fill:white;fill-rule:nonzero;"
   id="path28" />
                <path
   d="M854,216.2C854,209.9 859,204.9 865.7,204.9C872.4,204.9 877.4,209.7 877.4,215.8C877.4,222.3 872.6,227.3 865.7,227.3C859,227.3 854,222.5 854,216.2ZM857,242.2L874.2,242.2L874.2,367.7L857,367.7L857,242.2Z"
   style="fill:white;fill-rule:nonzero;"
   id="path30" />
                <path
   d="M904,216C904,209.7 909,204.7 915.7,204.7C922.4,204.7 927.4,209.5 927.4,215.6C927.4,222.1 922.6,227.1 915.7,227.1C909.1,227.1 904,222.3 904,216ZM907.1,242.2L924.3,242.2L924.3,367.7L907.1,367.7L907.1,242.2Z"
   style="fill:white;fill-rule:nonzero;"
   id="path32" />
                <path
   d="M1015.3,242.1C1015.3,242.1 998.9,243.7 1006.3,260.5C1013.7,277.2 1006.3,260.4 1006.3,260.4L1011.4,272.1L1033.3,321.9L980.8,321.9L961.2,322L940.6,367.7L959.1,367.7L972.9,336.3L1039.6,336.3L1053.4,367.7L1072.2,367.7L1015.3,242.1Z"
   style="fill:white;fill-rule:nonzero;"
   id="path34" />
            </g>
        </g>
        
    </g><g
   inkscape:groupmode="layer"
   id="layer3"
   inkscape:label="Layer 2"><rect
     style="opacity:1;fill:#ffffff;fill-opacity:1;stroke:none;stroke-width:0"
     id="rect266"
     width="385.44336"
     height="97.789719"
     x="791.19299"
     y="319.03479"
     rx="15"
     ry="15" /></g><g
   inkscape:groupmode="layer"
   id="layer1"
   inkscape:label="Layer 1"><g
     id="xcloner-logo.svg"
     transform="matrix(1.662,0,0,1.662,984.79033,367.90114)"
     style="clip-rule:evenodd;fill-rule:evenodd;stroke-linejoin:round;stroke-miterlimit:2">
            <g
   transform="translate(-117.07,-32)"
   id="g74">
                <g
   id="g72">
                    <g
   id="g44">
                        <path
   d="M 34.39,27.19 27.62,15.32 C 27.14,14.5 26.36,14 25.52,13.98 h -0.05 c -0.77,0 -1.46,0.4 -1.92,1.11 -0.52,0.81 -0.49,1.65 0.09,2.66 1.27,2.2 3.23,5.65 5.13,8.98 1.07,1.88 2.1,3.69 2.94,5.16 z"
   style="fill:#648cc5;fill-rule:nonzero"
   id="path40" />
                        <path
   d="m 31.72,32.1 c -0.84,1.47 -1.88,3.29 -2.95,5.17 -1.9,3.33 -3.86,6.78 -5.13,8.98 -0.58,1 -0.61,1.85 -0.09,2.66 0.46,0.72 1.17,1.13 1.97,1.11 0.84,-0.02 1.62,-0.52 2.1,-1.34 1.54,-2.66 4.44,-7.76 6.77,-11.87 -0.97,-1.71 -1.85,-3.25 -2.48,-4.36 z"
   style="fill:#648cc5;fill-rule:nonzero"
   id="path42" />
                    </g>
                    <g
   id="g70">
                        <g
   id="g58">
                            <path
   d="m 87.71,14.8 c 1.43,0.29 2.71,0.78 3.84,1.46 1.13,0.68 2.05,1.56 2.75,2.65 0.7,1.09 1.05,2.42 1.05,4.01 0,0.54 -0.16,0.94 -0.48,1.19 -0.32,0.25 -0.66,0.37 -1.02,0.37 -0.36,0 -0.7,-0.14 -1.02,-0.41 -0.32,-0.27 -0.48,-0.66 -0.48,-1.16 0,-0.14 -0.07,-0.52 -0.2,-1.16 -0.14,-0.63 -0.49,-1.29 -1.05,-1.97 -0.57,-0.68 -1.45,-1.29 -2.65,-1.84 -1.2,-0.54 -2.89,-0.82 -5.06,-0.82 -3.4,0 -5.87,0.71 -7.41,2.14 -1.54,1.43 -2.31,3.75 -2.31,6.97 v 16.38 c 0,3.26 0.86,5.51 2.58,6.73 1.72,1.22 4.1,1.84 7.14,1.84 3.13,0 5.51,-0.67 7.14,-2 1.63,-1.34 2.45,-3.55 2.45,-6.63 0,-0.5 0.15,-0.87 0.44,-1.12 0.29,-0.25 0.62,-0.37 0.99,-0.37 0.36,0 0.69,0.12 0.99,0.37 0.29,0.25 0.44,0.62 0.44,1.12 0,2.13 -0.28,3.93 -0.85,5.4 -0.57,1.47 -1.39,2.65 -2.48,3.53 -1.09,0.88 -2.4,1.52 -3.94,1.9 -1.54,0.39 -3.26,0.58 -5.17,0.58 -4.17,0 -7.3,-0.85 -9.38,-2.55 -2.08,-1.7 -3.13,-4.63 -3.13,-8.8 V 26.25 c 0,-2.27 0.28,-4.16 0.85,-5.68 0.57,-1.52 1.38,-2.74 2.45,-3.67 1.07,-0.93 2.37,-1.59 3.91,-1.97 1.54,-0.39 3.31,-0.58 5.3,-0.58 1.44,0.01 2.88,0.15 4.31,0.45 z"
   style="fill:#4cb6ac;fill-rule:nonzero"
   id="path46" />
                            <path
   d="m 103.14,14.83 c 0.29,-0.23 0.61,-0.34 0.95,-0.34 0.34,0 0.66,0.11 0.95,0.34 0.29,0.23 0.44,0.57 0.44,1.02 v 35 h 14.34 c 0.5,0 0.87,0.15 1.12,0.44 0.25,0.29 0.37,0.63 0.37,1.02 0,0.39 -0.12,0.73 -0.37,1.02 -0.25,0.29 -0.62,0.44 -1.12,0.44 h -15.7 c -0.45,0 -0.8,-0.14 -1.05,-0.41 -0.25,-0.27 -0.37,-0.59 -0.37,-0.95 V 15.85 c 0,-0.45 0.14,-0.79 0.44,-1.02 z"
   style="fill:#4cb6ac;fill-rule:nonzero"
   id="path48" />
                            <path
   d="m 127.74,16.97 c 1.93,-1.97 4.81,-2.96 8.67,-2.96 h 1.77 c 3.81,0 6.68,0.99 8.63,2.96 1.95,1.97 2.92,4.88 2.92,8.73 v 16.86 c 0,3.53 -1.05,6.34 -3.16,8.43 -2.11,2.08 -4.91,3.13 -8.39,3.13 h -1.77 c -1.77,0 -3.36,-0.27 -4.79,-0.82 -1.43,-0.54 -2.64,-1.33 -3.64,-2.34 -1,-1.02 -1.77,-2.24 -2.31,-3.67 -0.54,-1.43 -0.82,-3 -0.82,-4.72 V 25.71 c 0,-3.86 0.97,-6.77 2.89,-8.74 z m 16.79,31.88 c 1.52,-1.56 2.28,-3.66 2.28,-6.29 V 25.71 c 0,-5.89 -2.88,-8.84 -8.63,-8.84 h -1.77 c -2.85,0 -5.04,0.75 -6.56,2.24 -1.52,1.5 -2.28,3.69 -2.28,6.59 v 16.86 c 0,2.76 0.79,4.89 2.38,6.39 1.59,1.5 3.74,2.24 6.46,2.24 h 1.77 c 2.72,0.01 4.83,-0.78 6.35,-2.34 z"
   style="fill:#4cb6ac;fill-rule:nonzero"
   id="path50" />
                            <path
   d="m 177.84,53.37 c -0.25,0.23 -0.53,0.35 -0.85,0.37 -0.32,0.02 -0.65,-0.05 -0.99,-0.2 -0.34,-0.16 -0.6,-0.42 -0.78,-0.78 L 159.65,22.04 v 30.38 c 0,0.45 -0.15,0.79 -0.44,1.02 -0.29,0.23 -0.62,0.34 -0.99,0.34 -0.36,0 -0.69,-0.11 -0.99,-0.34 -0.29,-0.23 -0.44,-0.57 -0.44,-1.02 V 15.85 c 0,-0.36 0.11,-0.66 0.34,-0.88 0.23,-0.23 0.49,-0.36 0.78,-0.41 0.29,-0.05 0.58,-0.02 0.85,0.07 0.27,0.09 0.48,0.25 0.61,0.48 l 15.9,31.33 V 15.85 c 0,-0.45 0.15,-0.79 0.44,-1.02 0.29,-0.23 0.63,-0.33 1.02,-0.31 0.39,0.02 0.73,0.15 1.02,0.37 0.29,0.23 0.44,0.54 0.44,0.95 v 36.57 c 0.02,0.42 -0.1,0.73 -0.35,0.96 z"
   style="fill:#4cb6ac;fill-rule:nonzero"
   id="path52" />
                            <path
   d="m 186.67,14.9 c 0.34,-0.27 0.69,-0.41 1.05,-0.41 h 15.63 c 0.5,0 0.86,0.15 1.09,0.44 0.23,0.29 0.34,0.63 0.34,1.02 0,0.39 -0.12,0.73 -0.37,1.02 -0.25,0.29 -0.6,0.44 -1.05,0.44 h -14.27 v 14.82 h 11.49 c 0.5,0 0.87,0.16 1.12,0.48 0.25,0.32 0.37,0.66 0.37,1.02 0,0.36 -0.14,0.7 -0.41,1.02 -0.27,0.32 -0.63,0.48 -1.09,0.48 h -11.49 v 15.7 h 14.27 c 0.45,0 0.79,0.15 1.02,0.44 0.23,0.29 0.34,0.62 0.34,0.99 0,0.36 -0.11,0.69 -0.34,0.99 -0.23,0.29 -0.57,0.44 -1.02,0.44 h -15.63 c -0.36,0 -0.71,-0.1 -1.05,-0.31 -0.34,-0.2 -0.51,-0.62 -0.51,-1.26 V 16.05 c 0,-0.49 0.17,-0.88 0.51,-1.15 z"
   style="fill:#4cb6ac;fill-rule:nonzero"
   id="path54" />
                            <path
   d="m 213.66,53.44 c -0.29,0.23 -0.62,0.34 -0.99,0.34 -0.37,0 -0.69,-0.11 -0.99,-0.34 -0.29,-0.23 -0.44,-0.57 -0.44,-1.02 v -36.5 c 0,-0.95 0.48,-1.43 1.43,-1.43 h 9.18 c 0.59,0 1.44,0.08 2.55,0.24 1.11,0.16 2.21,0.54 3.3,1.16 1.09,0.61 2.04,1.53 2.85,2.75 0.82,1.22 1.22,2.88 1.22,4.96 v 8.5 c 0,5.08 -2.22,8.18 -6.66,9.31 l 5.1,10.2 c 0.23,0.5 0.26,0.93 0.1,1.29 -0.16,0.36 -0.41,0.61 -0.75,0.75 -0.34,0.14 -0.73,0.14 -1.16,0 -0.43,-0.14 -0.78,-0.5 -1.05,-1.09 l -5.17,-10.67 h -8.09 v 10.54 c 0.01,0.44 -0.14,0.78 -0.43,1.01 z m 15.05,-31.61 c -0.14,-0.73 -0.44,-1.4 -0.92,-2.04 -0.48,-0.63 -1.19,-1.19 -2.14,-1.67 -0.95,-0.48 -2.22,-0.71 -3.81,-0.71 h -7.75 v 21.55 h 7.14 c 0.95,0 1.88,-0.08 2.79,-0.24 0.91,-0.16 1.72,-0.48 2.45,-0.95 0.72,-0.48 1.31,-1.17 1.77,-2.07 0.45,-0.91 0.68,-2.11 0.68,-3.6 v -8.5 c 0,-0.45 -0.07,-1.04 -0.21,-1.77 z"
   style="fill:#4cb6ac;fill-rule:nonzero"
   id="path56" />
                        </g>
                        <g
   id="g68">
                            <g
   id="g64">
                                <path
   d="M 34.67,36.74 C 33.68,35 32.79,33.44 32.15,32.31 L 31.97,32 l 2.74,-4.8 -6.85,-12 c -0.52,-0.91 -1.39,-1.46 -2.33,-1.48 -0.88,-0.02 -1.69,0.43 -2.2,1.23 -0.57,0.89 -0.55,1.85 0.08,2.94 1.27,2.2 3.23,5.64 5.13,8.98 1.06,1.87 2.09,3.67 2.93,5.14 -0.84,1.47 -1.87,3.27 -2.93,5.14 -1.9,3.33 -3.86,6.78 -5.13,8.98 -0.63,1.08 -0.65,2.05 -0.08,2.94 0.5,0.79 1.28,1.23 2.15,1.23 h 0.06 c 0.93,-0.02 1.8,-0.57 2.33,-1.48 1.55,-2.67 4.46,-7.79 6.81,-11.94 l 0.04,-0.07 z m -5.9,-10.02 c -1.9,-3.33 -3.86,-6.78 -5.13,-8.98 -0.58,-1 -0.61,-1.85 -0.09,-2.66 0.45,-0.71 1.15,-1.11 1.92,-1.11 h 0.05 c 0.84,0.02 1.62,0.52 2.1,1.34 l 6.77,11.87 -2.68,4.69 C 30.87,30.41 29.84,28.6 28.77,26.72 Z m -1.15,21.95 c -0.48,0.82 -1.26,1.33 -2.1,1.34 -0.8,0.02 -1.51,-0.39 -1.97,-1.11 -0.52,-0.81 -0.49,-1.65 0.09,-2.66 1.27,-2.2 3.24,-5.65 5.13,-8.98 1.07,-1.88 2.1,-3.69 2.95,-5.17 l 0.19,0.33 c 0.64,1.12 1.51,2.65 2.48,4.36 -2.33,4.13 -5.23,9.23 -6.77,11.89 z"
   style="fill:#4cb6ac;fill-rule:nonzero"
   id="path60" />
                                <path
   d="m 32.69,31.99 c 2.22,3.9 7.3,12.86 9.55,16.75 1.03,1.78 3.24,1.9 4.3,0.24 0.6,-0.94 0.45,-1.87 -0.08,-2.8 -2.01,-3.47 -5.78,-10.13 -8.1,-14.19 2.32,-4.06 6.1,-10.72 8.1,-14.19 0.54,-0.93 0.69,-1.86 0.08,-2.8 -1.06,-1.65 -3.27,-1.54 -4.3,0.24 z"
   style="fill:#4cb6ac;fill-rule:nonzero"
   id="path62" />
                            </g>
                            <path
   d="M 34.99,3.07 C 19.07,3.07 6.12,15.99 6.06,31.9 H 2.08 C 1,31.9 0.67,32.59 1.35,33.43 l 5.79,7.24 c 0.67,0.84 1.77,0.84 2.45,0 l 5.79,-7.24 C 16.05,32.59 15.72,31.9 14.65,31.9 H 10.68 C 10.74,18.52 21.6,7.7 34.99,7.7 48.42,7.69 59.3,18.57 59.3,32 59.3,45.43 48.42,56.31 34.99,56.31 h -0.01 c 0,0 -2.66,-0.01 -2.66,2.3 0,2.32 2.66,2.32 2.66,2.32 h 0.01 C 50.94,60.93 63.92,47.95 63.92,32 63.92,16.05 50.94,3.07 34.99,3.07 Z"
   style="fill:#4cb6ac;fill-rule:nonzero"
   id="path66" />
                        </g>
                    </g>
                </g>
            </g>
        </g></g>
    <defs
   id="defs107">
        <linearGradient
   id="_Linear1"
   x1="0"
   y1="0"
   x2="1"
   y2="0"
   gradientUnits="userSpaceOnUse"
   gradientTransform="matrix(1.40528e-14,-229.5,229.5,1.40528e-14,244.389,383.45)"><stop
     offset="0"
     style="stop-color:white;stop-opacity:1"
     id="stop79" /><stop
     offset="0"
     style="stop-color:white;stop-opacity:1"
     id="stop81" /><stop
     offset="1"
     style="stop-color:white;stop-opacity:0.7"
     id="stop83" /></linearGradient>
        <linearGradient
   id="_Linear2"
   x1="0"
   y1="0"
   x2="1"
   y2="0"
   gradientUnits="userSpaceOnUse"
   gradientTransform="matrix(8.87636e-15,144.962,-144.962,8.87636e-15,326.09,237.743)"><stop
     offset="0"
     style="stop-color:white;stop-opacity:1"
     id="stop86" /><stop
     offset="0"
     style="stop-color:white;stop-opacity:1"
     id="stop88" /><stop
     offset="1"
     style="stop-color:white;stop-opacity:0.7"
     id="stop90" /></linearGradient>
        <linearGradient
   id="_Linear3"
   x1="0"
   y1="0"
   x2="1"
   y2="0"
   gradientUnits="userSpaceOnUse"
   gradientTransform="matrix(87.6,0,0,87.6,389.366,191.889)"><stop
     offset="0"
     style="stop-color:white;stop-opacity:1"
     id="stop93" /><stop
     offset="0"
     style="stop-color:white;stop-opacity:1"
     id="stop95" /><stop
     offset="1"
     style="stop-color:white;stop-opacity:0.7"
     id="stop97" /></linearGradient>
        <linearGradient
   id="_Linear4"
   x1="0"
   y1="0"
   x2="1"
   y2="0"
   gradientUnits="userSpaceOnUse"
   gradientTransform="matrix(32.5512,0,0,32.5512,377.191,159.95)"><stop
     offset="0"
     style="stop-color:white;stop-opacity:1"
     id="stop100" /><stop
     offset="0"
     style="stop-color:white;stop-opacity:1"
     id="stop102" /><stop
     offset="1"
     style="stop-color:white;stop-opacity:0.7"
     id="stop104" /></linearGradient>
    </defs>
</svg>
