<?xml version="1.0" encoding="utf-8"?>
<!-- Generator: Adobe Illustrator 24.2.1, SVG Export Plug-In . SVG Version: 6.00 Build 0)  -->
<svg version="1.1" id="Calque_1" xmlns="http://www.w3.org/2000/svg" xmlns:xlink="http://www.w3.org/1999/xlink" x="0px" y="0px"
	 width="1180px" height="550px" viewBox="0 0 1180 550" style="enable-background:new 0 0 1180 550;" xml:space="preserve">
<style type="text/css">
	.st0{fill:#00BC73;}
	.st1{fill:url(#SVGID_1_);}
	.st2{fill:url(#SVGID_2_);}
	.st3{fill:url(#SVGID_3_);}
	.st4{fill:url(#SVGID_4_);}
	.st5{fill:#FFFFFF;}
</style>
<rect class="st0" width="1180" height="550"/>
<g>
	<g>
		<g>
			<g>
				
					<linearGradient id="SVGID_1_" gradientUnits="userSpaceOnUse" x1="244.389" y1="446.0873" x2="244.389" y2="675.5873" gradientTransform="matrix(1 0 0 -1 0 829.5373)">
					<stop  offset="1.901455e-03" style="stop-color:#FFFFFF"/>
					<stop  offset="1" style="stop-color:#FFFFFF;stop-opacity:0.7"/>
				</linearGradient>
				<path class="st1" d="M380.9,237.6c-9-47.7-47.9-83.6-94.5-83.6c-41.2,0-76.4,28.4-90.2,67.8C89.6,203.4,72.1,379.4,184.4,383.4
					c4.7,0,9.3-0.3,13.6-1c87.1-12.6,96.7-145.8,181.9-144.7c0.4,0,0.7,0,1.1,0L380.9,237.6z"/>
			</g>
			<g>
				
					<linearGradient id="SVGID_2_" gradientUnits="userSpaceOnUse" x1="326.0904" y1="591.7941" x2="326.0904" y2="446.8322" gradientTransform="matrix(1 0 0 -1 0 829.5373)">
					<stop  offset="1.901455e-03" style="stop-color:#FFFFFF"/>
					<stop  offset="1" style="stop-color:#FFFFFF;stop-opacity:0.7"/>
				</linearGradient>
				<path class="st2" d="M197.9,382.4c87.1-12.6,96.7-145.8,181.9-144.7c0.4,0,0.7,0,1.1,0c106.1,2.2,86.3,144.2,10,144.8
					C330.4,382.9,197.9,382.4,197.9,382.4"/>
			</g>
		</g>
		<g>
			
				<linearGradient id="SVGID_3_" gradientUnits="userSpaceOnUse" x1="389.3658" y1="637.6482" x2="476.9658" y2="637.6482" gradientTransform="matrix(1 0 0 -1 0 829.5373)">
				<stop  offset="1.901455e-03" style="stop-color:#FFFFFF"/>
				<stop  offset="1" style="stop-color:#FFFFFF;stop-opacity:0.7"/>
			</linearGradient>
			<path class="st3" d="M477,160.4c-3.2-0.4-6.1-0.8-9.1-1c-15-1.3-29.8-0.9-44.3,3.7c-9.1,2.9-17.1,7.5-22.8,15.4
				c-5.3,7.5-8.4,15.9-10,24.9c-0.7,4.2-1.1,8.5-1.4,13c14.4-15.9,31.3-28.5,49.5-39.4c-16.5,13-31.7,27.1-43.2,45.1
				c0.5,0.3,0.9,0.5,1.2,0.6c13.6,3.5,27,3.7,39.9-2.7c10.5-5.2,18.1-13.1,21.8-24.4c1.4-4.4,2.7-8.8,4-13.2
				c2.4-8.2,6.9-15,13.4-20.6c0.2-0.2,0.4-0.3,0.6-0.5C476.6,161,476.7,160.9,477,160.4z"/>
			
				<linearGradient id="SVGID_4_" gradientUnits="userSpaceOnUse" x1="377.1907" y1="669.5873" x2="409.7419" y2="669.5873" gradientTransform="matrix(1 0 0 -1 0 829.5373)">
				<stop  offset="1.901455e-03" style="stop-color:#FFFFFF"/>
				<stop  offset="1" style="stop-color:#FFFFFF;stop-opacity:0.7"/>
			</linearGradient>
			<path class="st4" d="M387.4,132.7c0,0.3-0.1,0.6-0.1,0.9c0.2,5-1.4,9.6-3.9,13.9c-1.4,2.4-2.9,4.8-4,7.3
				c-3.6,7.8-2.5,15.4,1.6,22.7c2.2,3.9,5.3,7.1,9.2,9.9c2.5-5.1,6.2-9.4,5.8-15.5c-0.3-5.1-0.1-10.3-0.1-15.7
				c0.8,6,1.7,11.9,2.5,18c0.6-0.5,1.1-0.9,1.6-1.3c2.7-2,5.3-4.2,8.1-6c1.4-0.9,1.8-1.7,1.5-3.3c-0.8-5.2-3.1-9.9-6-14.2
				c-4.1-6.2-9.3-11.5-15.1-16.2c-0.2-0.2-0.5-0.4-0.8-0.6C387.8,132.7,387.6,132.7,387.4,132.7z"/>
		</g>
	</g>
	<g>
		<path class="st5" d="M509.3,242.1h17.9v110h68v15.6h-85.9V242.1z"/>
		<path class="st5" d="M707,352.1v15.6h-91.1V242.1h88.6v15.6h-70.7v38.6h63v15.3h-63v40.5H707z"/>
		<path class="st5" d="M843.4,242.1l-55.1,125.6h-17.8l-55.3-125.6h19.4l45.2,103.2l45.6-103.2L843.4,242.1L843.4,242.1z"/>
		<path class="st5" d="M854,216.2c0-6.3,5-11.3,11.7-11.3s11.7,4.8,11.7,10.9c0,6.5-4.8,11.5-11.7,11.5
			C859,227.3,854,222.5,854,216.2z M857,242.2h17.2v125.5H857V242.2z"/>
		<path class="st5" d="M904,216c0-6.3,5-11.3,11.7-11.3s11.7,4.8,11.7,10.9c0,6.5-4.8,11.5-11.7,11.5C909.1,227.1,904,222.3,904,216
			z M907.1,242.2h17.2v125.5h-17.2V242.2z"/>
		<path class="st5" d="M1015.3,242.1c0,0-16.4,1.6-9,18.4c7.4,16.7,0-0.1,0-0.1l5.1,11.7l0,0l0,0l21.9,49.8h-52.5l-19.6,0.1
			l-20.6,45.7h18.5l13.8-31.4h66.7l13.8,31.4h18.8L1015.3,242.1z"/>
	</g>
</g>
</svg>
